<mxfile host="65bd71144e">
    <diagram id="E9RKOQZ3DSj5cIOsCkH8" name="Page-1">
        <mxGraphModel dx="1504" dy="857" grid="1" gridSize="10" guides="1" tooltips="1" connect="1" arrows="1" fold="1" page="1" pageScale="1" pageWidth="850" pageHeight="1100" math="0" shadow="0">
            <root>
                <mxCell id="0"/>
                <mxCell id="1" parent="0"/>
                <mxCell id="5" value="" style="verticalLabelPosition=bottom;verticalAlign=top;html=1;shape=mxgraph.basic.rect;fillColor2=none;strokeWidth=1;size=20;indent=5;" parent="1" vertex="1">
                    <mxGeometry x="20" y="20" width="200" height="60" as="geometry"/>
                </mxCell>
                <mxCell id="6" value="Foldername; FolderID" style="text;html=1;align=center;verticalAlign=middle;whiteSpace=wrap;rounded=0;" parent="1" vertex="1">
                    <mxGeometry x="250" y="35" width="130" height="30" as="geometry"/>
                </mxCell>
                <mxCell id="7" value="" style="rounded=1;whiteSpace=wrap;html=1;" parent="1" vertex="1">
                    <mxGeometry x="60" y="90" width="120" height="50" as="geometry"/>
                </mxCell>
                <mxCell id="8" value="Prompt; PromptID" style="text;html=1;align=center;verticalAlign=middle;whiteSpace=wrap;rounded=0;" parent="1" vertex="1">
                    <mxGeometry x="250" y="90" width="110" height="50" as="geometry"/>
                </mxCell>
                <mxCell id="9" value="" style="rounded=1;whiteSpace=wrap;html=1;" parent="1" vertex="1">
                    <mxGeometry x="60" y="160" width="120" height="50" as="geometry"/>
                </mxCell>
                <mxCell id="10" value="Prompt; PromptID" style="text;html=1;align=center;verticalAlign=middle;whiteSpace=wrap;rounded=0;" parent="1" vertex="1">
                    <mxGeometry x="250" y="160" width="110" height="50" as="geometry"/>
                </mxCell>
                <mxCell id="11" value="" style="verticalLabelPosition=bottom;verticalAlign=top;html=1;shape=mxgraph.basic.rect;fillColor2=none;strokeWidth=1;size=20;indent=5;" parent="1" vertex="1">
                    <mxGeometry x="20" y="240" width="200" height="60" as="geometry"/>
                </mxCell>
                <mxCell id="12" value="Foldername; FolderID" style="text;html=1;align=center;verticalAlign=middle;whiteSpace=wrap;rounded=0;" parent="1" vertex="1">
                    <mxGeometry x="250" y="255" width="130" height="30" as="geometry"/>
                </mxCell>
                <mxCell id="13" value="" style="rounded=1;whiteSpace=wrap;html=1;" parent="1" vertex="1">
                    <mxGeometry x="60" y="320" width="120" height="50" as="geometry"/>
                </mxCell>
                <mxCell id="14" value="" style="rounded=1;whiteSpace=wrap;html=1;" parent="1" vertex="1">
                    <mxGeometry x="60" y="400" width="120" height="50" as="geometry"/>
                </mxCell>
                <mxCell id="15" value="Prompt; PromptID" style="text;html=1;align=center;verticalAlign=middle;whiteSpace=wrap;rounded=0;" parent="1" vertex="1">
                    <mxGeometry x="250" y="320" width="110" height="50" as="geometry"/>
                </mxCell>
                <mxCell id="16" value="Prompt; PromptID" style="text;html=1;align=center;verticalAlign=middle;whiteSpace=wrap;rounded=0;" parent="1" vertex="1">
                    <mxGeometry x="250" y="400" width="110" height="50" as="geometry"/>
                </mxCell>
                <mxCell id="17" value="const folderStructure = [&#xa;    {&#xa;        folderName: &quot;Work&quot;,&#xa;        folderId: &quot;F1&quot;,&#xa;        prompts: [&#xa;            {&#xa;                promptText: &quot;Prepare meeting notes&quot;,&#xa;                promptId: &quot;P1&quot;&#xa;            },&#xa;            {&#xa;                promptText: &quot;Review project timeline&quot;,&#xa;                promptId: &quot;P2&quot;&#xa;            }&#xa;        ]&#xa;    },&#xa;    {&#xa;        folderName: &quot;Personal&quot;,&#xa;        folderId: &quot;F2&quot;,&#xa;        prompts: [&#xa;            {&#xa;                promptText: &quot;Grocery shopping list&quot;,&#xa;                promptId: &quot;P3&quot;&#xa;            }&#xa;        ]&#xa;    },&#xa;    {&#xa;        folderName: &quot;Ideas&quot;,&#xa;        folderId: &quot;F3&quot;,&#xa;        prompts: [&#xa;            {&#xa;                promptText: &quot;New app concept&quot;,&#xa;                promptId: &quot;P4&quot;&#xa;            },&#xa;            {&#xa;                promptText: &quot;Book plot ideas&quot;,&#xa;                promptId: &quot;P5&quot;&#xa;            }&#xa;        ]&#xa;    }&#xa;];" style="text;whiteSpace=wrap;" parent="1" vertex="1">
                    <mxGeometry x="490" y="65" width="290" height="600" as="geometry"/>
                </mxCell>
                <mxCell id="18" value="&lt;h1&gt;Array Structure - First Design Concept&lt;/h1&gt;" style="text;html=1;align=center;verticalAlign=middle;whiteSpace=wrap;rounded=0;" parent="1" vertex="1">
                    <mxGeometry x="490" y="35" width="450" height="30" as="geometry"/>
                </mxCell>
                <UserObject label="// Function to generate unique IDs (using Timestamp + Random for simplicity)&#xa;function generateId(prefix) {&#xa;    const timestamp = Date.now();&#xa;    const random = Math.floor(Math.random() * 10000);&#xa;    return `${prefix}-${timestamp}-${random}`;&#xa;}&#xa;&#xa;&#xa;const folderStructure = [&#xa;    {&#xa;        folderName: &quot;Work&quot;,&#xa;        folderId: generateId(&#39;F&#39;),&#xa;        prompts: [&#xa;            {&#xa;                promptText: &quot;Prepare meeting notes&quot;,&#xa;                promptId: generateId(&#39;P&#39;)&#xa;            },&#xa;            {&#xa;                promptText: &quot;Review project timeline&quot;,&#xa;                promptId: generateId(&#39;P&#39;)&#xa;            }&#xa;        ],&#xa;        folders: [  // Nested folders&#xa;            {&#xa;                folderName: &quot;Meetings&quot;,&#xa;                folderId: generateId(&#39;F&#39;),&#xa;                prompts: [&#xa;                    {&#xa;                        promptText: &quot;Schedule team sync&quot;,&#xa;                        promptId: generateId(&#39;P&#39;)&#xa;                    }&#xa;                ],&#xa;                folders: []  // Can contain more nested folders&#xa;            },&#xa;            {&#xa;                folderName: &quot;Projects&quot;,&#xa;                folderId: generateId(&#39;F&#39;),&#xa;                prompts: [&#xa;                    {&#xa;                        promptText: &quot;Update project plan&quot;,&#xa;                        promptId: generateId(&#39;P&#39;)&#xa;                    }&#xa;                ],&#xa;                folders: [&#xa;                    {&#xa;                        folderName: &quot;Project Alpha&quot;,&#xa;                        folderId: generateId(&#39;F&#39;),&#xa;                        prompts: [&#xa;                            {&#xa;                                promptText: &quot;Design review&quot;,&#xa;                                promptId: generateId(&#39;P&#39;)&#xa;                            }&#xa;                        ],&#xa;                        folders: []&#xa;                    }&#xa;                ]&#xa;            }&#xa;        ]&#xa;    },&#xa;    {&#xa;        folderName: &quot;Personal&quot;,&#xa;        folderId: generateId(&#39;F&#39;),&#xa;        prompts: [&#xa;            {&#xa;                promptText: &quot;Grocery shopping list&quot;,&#xa;                promptId: generateId(&#39;P&#39;)&#xa;            }&#xa;        ],&#xa;        folders: [&#xa;            {&#xa;                folderName: &quot;Hobbies&quot;,&#xa;                folderId: generateId(&#39;F&#39;),&#xa;                prompts: [&#xa;                    {&#xa;                        promptText: &quot;Practice guitar&quot;,&#xa;                        promptId: generateId(&#39;P&#39;)&#xa;                    }&#xa;                ],&#xa;                folders: []&#xa;            }&#xa;        ]&#xa;    },&#xa;    {&#xa;        folderName: &quot;Ideas&quot;,&#xa;        folderId: generateId(&#39;F&#39;),&#xa;        prompts: [&#xa;            {&#xa;                promptText: &quot;New app concept&quot;,&#xa;                promptId: generateId(&#39;P&#39;)&#xa;            },&#xa;            {&#xa;                promptText: &quot;Book plot ideas&quot;,&#xa;                promptId: generateId(&#39;P&#39;)&#xa;            }&#xa;        ],&#xa;        folders: []&#xa;    }&#xa;];&#xa;&#xa;&#xa;// Log the structure to see the result&#xa;console.log(JSON.stringify(folderStructure, null, 2));" link="// Function to generate unique IDs (using Timestamp + Random for simplicity)&#xa;function generateId(prefix) {&#xa;    const timestamp = Date.now();&#xa;    const random = Math.floor(Math.random() * 10000);&#xa;    return `${prefix}-${timestamp}-${random}`;&#xa;}&#xa;&#xa;&#xa;const folderStructure = [&#xa;    {&#xa;        folderName: &quot;Work&quot;,&#xa;        folderId: generateId(&#39;F&#39;),&#xa;        prompts: [&#xa;            {&#xa;                promptText: &quot;Prepare meeting notes&quot;,&#xa;                promptId: generateId(&#39;P&#39;)&#xa;            },&#xa;            {&#xa;                promptText: &quot;Review project timeline&quot;,&#xa;                promptId: generateId(&#39;P&#39;)&#xa;            }&#xa;        ],&#xa;        folders: [  // Nested folders&#xa;            {&#xa;                folderName: &quot;Meetings&quot;,&#xa;                folderId: generateId(&#39;F&#39;),&#xa;                prompts: [&#xa;                    {&#xa;                        promptText: &quot;Schedule team sync&quot;,&#xa;                        promptId: generateId(&#39;P&#39;)&#xa;                    }&#xa;                ],&#xa;                folders: []  // Can contain more nested folders&#xa;            },&#xa;            {&#xa;                folderName: &quot;Projects&quot;,&#xa;                folderId: generateId(&#39;F&#39;),&#xa;                prompts: [&#xa;                    {&#xa;                        promptText: &quot;Update project plan&quot;,&#xa;                        promptId: generateId(&#39;P&#39;)&#xa;                    }&#xa;                ],&#xa;                folders: [&#xa;                    {&#xa;                        folderName: &quot;Project Alpha&quot;,&#xa;                        folderId: generateId(&#39;F&#39;),&#xa;                        prompts: [&#xa;                            {&#xa;                                promptText: &quot;Design review&quot;,&#xa;                                promptId: generateId(&#39;P&#39;)&#xa;                            }&#xa;                        ],&#xa;                        folders: []&#xa;                    }&#xa;                ]&#xa;            }&#xa;        ]&#xa;    },&#xa;    {&#xa;        folderName: &quot;Personal&quot;,&#xa;        folderId: generateId(&#39;F&#39;),&#xa;        prompts: [&#xa;            {&#xa;                promptText: &quot;Grocery shopping list&quot;,&#xa;                promptId: generateId(&#39;P&#39;)&#xa;            }&#xa;        ],&#xa;        folders: [&#xa;            {&#xa;                folderName: &quot;Hobbies&quot;,&#xa;                folderId: generateId(&#39;F&#39;),&#xa;                prompts: [&#xa;                    {&#xa;                        promptText: &quot;Practice guitar&quot;,&#xa;                        promptId: generateId(&#39;P&#39;)&#xa;                    }&#xa;                ],&#xa;                folders: []&#xa;            }&#xa;        ]&#xa;    },&#xa;    {&#xa;        folderName: &quot;Ideas&quot;,&#xa;        folderId: generateId(&#39;F&#39;),&#xa;        prompts: [&#xa;            {&#xa;                promptText: &quot;New app concept&quot;,&#xa;                promptId: generateId(&#39;P&#39;)&#xa;            },&#xa;            {&#xa;                promptText: &quot;Book plot ideas&quot;,&#xa;                promptId: generateId(&#39;P&#39;)&#xa;            }&#xa;        ],&#xa;        folders: []&#xa;    }&#xa;];&#xa;&#xa;&#xa;// Log the structure to see the result&#xa;console.log(JSON.stringify(folderStructure, null, 2));" id="19">
                    <mxCell style="text;whiteSpace=wrap;" vertex="1" parent="1">
                        <mxGeometry x="1000" y="120" width="440" height="1490" as="geometry"/>
                    </mxCell>
                </UserObject>
                <mxCell id="20" value="&lt;h1&gt;Array Structure - Advanced Design Concept&lt;/h1&gt;" style="text;html=1;align=center;verticalAlign=middle;whiteSpace=wrap;rounded=0;" vertex="1" parent="1">
                    <mxGeometry x="1000" y="35" width="510" height="30" as="geometry"/>
                </mxCell>
                <mxCell id="21" value="&lt;h2&gt;To make nested folders possible&lt;/h2&gt;" style="text;html=1;align=center;verticalAlign=middle;whiteSpace=wrap;rounded=0;" vertex="1" parent="1">
                    <mxGeometry x="1000" y="80" width="280" height="30" as="geometry"/>
                </mxCell>
                <mxCell id="22" value="" style="verticalLabelPosition=bottom;verticalAlign=top;html=1;shape=mxgraph.basic.rect;fillColor2=none;strokeWidth=1;size=20;indent=5;" vertex="1" parent="1">
                    <mxGeometry x="1620" y="35" width="200" height="60" as="geometry"/>
                </mxCell>
                <mxCell id="23" value="Foldername; FolderID" style="text;html=1;align=center;verticalAlign=middle;whiteSpace=wrap;rounded=0;" vertex="1" parent="1">
                    <mxGeometry x="1850" y="50" width="130" height="30" as="geometry"/>
                </mxCell>
                <mxCell id="24" value="" style="rounded=1;whiteSpace=wrap;html=1;" vertex="1" parent="1">
                    <mxGeometry x="1660" y="105" width="120" height="50" as="geometry"/>
                </mxCell>
                <mxCell id="25" value="Prompt; PromptID" style="text;html=1;align=center;verticalAlign=middle;whiteSpace=wrap;rounded=0;" vertex="1" parent="1">
                    <mxGeometry x="1850" y="105" width="110" height="50" as="geometry"/>
                </mxCell>
                <mxCell id="26" value="" style="rounded=1;whiteSpace=wrap;html=1;" vertex="1" parent="1">
                    <mxGeometry x="1660" y="175" width="120" height="50" as="geometry"/>
                </mxCell>
                <mxCell id="27" value="Prompt; PromptID" style="text;html=1;align=center;verticalAlign=middle;whiteSpace=wrap;rounded=0;" vertex="1" parent="1">
                    <mxGeometry x="1850" y="175" width="110" height="50" as="geometry"/>
                </mxCell>
                <mxCell id="28" value="" style="verticalLabelPosition=bottom;verticalAlign=top;html=1;shape=mxgraph.basic.rect;fillColor2=none;strokeWidth=1;size=20;indent=5;" vertex="1" parent="1">
                    <mxGeometry x="1620" y="455" width="200" height="60" as="geometry"/>
                </mxCell>
                <mxCell id="29" value="Foldername; FolderID" style="text;html=1;align=center;verticalAlign=middle;whiteSpace=wrap;rounded=0;" vertex="1" parent="1">
                    <mxGeometry x="1850" y="470" width="130" height="30" as="geometry"/>
                </mxCell>
                <mxCell id="30" value="" style="rounded=1;whiteSpace=wrap;html=1;" vertex="1" parent="1">
                    <mxGeometry x="1660" y="535" width="120" height="50" as="geometry"/>
                </mxCell>
                <mxCell id="31" value="" style="rounded=1;whiteSpace=wrap;html=1;" vertex="1" parent="1">
                    <mxGeometry x="1660" y="615" width="120" height="50" as="geometry"/>
                </mxCell>
                <mxCell id="32" value="Prompt; PromptID" style="text;html=1;align=center;verticalAlign=middle;whiteSpace=wrap;rounded=0;" vertex="1" parent="1">
                    <mxGeometry x="1850" y="535" width="110" height="50" as="geometry"/>
                </mxCell>
                <mxCell id="33" value="Prompt; PromptID" style="text;html=1;align=center;verticalAlign=middle;whiteSpace=wrap;rounded=0;" vertex="1" parent="1">
                    <mxGeometry x="1850" y="615" width="110" height="50" as="geometry"/>
                </mxCell>
                <mxCell id="34" value="" style="verticalLabelPosition=bottom;verticalAlign=top;html=1;shape=mxgraph.basic.rect;fillColor2=none;strokeWidth=1;size=20;indent=5;" vertex="1" parent="1">
                    <mxGeometry x="1660" y="240" width="200" height="60" as="geometry"/>
                </mxCell>
                <mxCell id="35" value="" style="rounded=1;whiteSpace=wrap;html=1;" vertex="1" parent="1">
                    <mxGeometry x="1690" y="320" width="120" height="50" as="geometry"/>
                </mxCell>
                <mxCell id="36" value="Foldername; FolderID" style="text;html=1;align=center;verticalAlign=middle;whiteSpace=wrap;rounded=0;" vertex="1" parent="1">
                    <mxGeometry x="1890" y="255" width="130" height="30" as="geometry"/>
                </mxCell>
                <mxCell id="37" value="Prompt; PromptID" style="text;html=1;align=center;verticalAlign=middle;whiteSpace=wrap;rounded=0;" vertex="1" parent="1">
                    <mxGeometry x="1890" y="320" width="110" height="50" as="geometry"/>
                </mxCell>
                <mxCell id="38" value="&lt;h1&gt;nested Folder&lt;/h1&gt;" style="text;html=1;align=center;verticalAlign=middle;whiteSpace=wrap;rounded=0;" vertex="1" parent="1">
                    <mxGeometry x="2080" y="210" width="205" height="30" as="geometry"/>
                </mxCell>
                <mxCell id="39" value="" style="endArrow=classic;html=1;exitX=0;exitY=1;exitDx=0;exitDy=0;entryX=1;entryY=0.5;entryDx=0;entryDy=0;" edge="1" parent="1" source="38" target="36">
                    <mxGeometry width="50" height="50" relative="1" as="geometry">
                        <mxPoint x="2090" y="390" as="sourcePoint"/>
                        <mxPoint x="2140" y="340" as="targetPoint"/>
                    </mxGeometry>
                </mxCell>
                <mxCell id="40" value="" style="rounded=1;whiteSpace=wrap;html=1;" vertex="1" parent="1">
                    <mxGeometry x="1690" y="390" width="120" height="50" as="geometry"/>
                </mxCell>
                <mxCell id="41" value="Prompt; PromptID" style="text;html=1;align=center;verticalAlign=middle;whiteSpace=wrap;rounded=0;" vertex="1" parent="1">
                    <mxGeometry x="1890" y="390" width="110" height="50" as="geometry"/>
                </mxCell>
            </root>
        </mxGraphModel>
    </diagram>
</mxfile>